<svg width="34" height="33" viewBox="0 0 34 33" fill="none" xmlns="http://www.w3.org/2000/svg">
<circle cx="17.3025" cy="16.5" r="16" fill="white" stroke="#C5CEDA"/>
<path d="M19.197 7C20.7524 6.99926 22.2611 7.53192 23.4714 8.50916C24.6817 9.48639 25.5204 10.8491 25.8477 12.3701C26.175 13.891 25.9712 15.4782 25.2701 16.867C24.569 18.2558 23.4131 19.3622 21.9951 20.0016C21.5419 21.0039 20.8524 21.8813 19.9857 22.5584C19.119 23.2356 18.1011 23.6925 17.0191 23.8897C15.9372 24.087 14.8236 24.0188 13.7737 23.6911C12.7239 23.3633 11.7692 22.7858 10.9916 22.0079C10.2139 21.2301 9.63651 20.2752 9.30883 19.2251C8.98116 18.175 8.91301 17.0611 9.11024 15.9789C9.30746 14.8967 9.76417 13.8785 10.4412 13.0117C11.1182 12.1448 11.9954 11.4551 12.9974 11.0017C13.5364 9.80886 14.408 8.79683 15.5076 8.08703C16.6073 7.37723 17.8883 6.9998 19.197 7ZM16.6471 12.9512H14.9472V13.8013C14.3948 13.8 13.8636 14.0139 13.4662 14.3976C13.0688 14.7813 12.8364 15.3048 12.8183 15.857C12.8002 16.4092 12.9977 16.9468 13.3691 17.3558C13.7405 17.7648 14.2566 18.013 14.8078 18.0479L14.9472 18.0522H16.6471L16.7236 18.059C16.8216 18.0767 16.9103 18.1283 16.9741 18.2048C17.0379 18.2812 17.0729 18.3777 17.0729 18.4773C17.0729 18.5769 17.0379 18.6733 16.9741 18.7498C16.9103 18.8262 16.8216 18.8778 16.7236 18.8956L16.6471 18.9024H13.2473V20.6027H14.9472V21.4529H16.6471V20.6027C17.1995 20.604 17.7307 20.3902 18.1281 20.0064C18.5256 19.6227 18.758 19.0992 18.7761 18.547C18.7942 17.9948 18.5966 17.4572 18.2252 17.0483C17.8538 16.6393 17.3378 16.391 16.7865 16.3561L16.6471 16.3519H14.9472L14.8707 16.3451C14.7727 16.3273 14.6841 16.2757 14.6203 16.1993C14.5564 16.1228 14.5215 16.0264 14.5215 15.9268C14.5215 15.8272 14.5564 15.7307 14.6203 15.6543C14.6841 15.5778 14.7727 15.5262 14.8707 15.5085L14.9472 15.5017H18.3471V13.8013H16.6471V12.9512ZM19.197 8.70034C18.4769 8.69949 17.7647 8.85162 17.1077 9.14664C16.4507 9.44167 15.8638 9.87287 15.3858 10.4117C16.3465 10.3534 17.3086 10.4997 18.2085 10.841C19.1085 11.1823 19.9257 11.7108 20.6062 12.3916C21.2867 13.0723 21.815 13.8898 22.1561 14.79C22.4973 15.6902 22.6434 16.6526 22.585 17.6135C23.3578 16.9262 23.9035 16.0202 24.1496 15.0157C24.3958 14.0111 24.3308 12.9554 23.9633 11.9886C23.5958 11.0217 22.9432 10.1895 22.092 9.60227C21.2407 9.01501 20.2311 8.70046 19.197 8.70034Z" fill="#3FA9FF"/>
</svg>
