<svg width="33" height="33" viewBox="0 0 33 33" fill="none" xmlns="http://www.w3.org/2000/svg">
<circle cx="16.5" cy="16.5" r="16" fill="white" stroke="#C5CEDA"/>
<path d="M18.197 8C19.7524 7.99926 21.2611 8.53192 22.4714 9.50916C23.6817 10.4864 24.5204 11.8491 24.8477 13.3701C25.175 14.891 24.9712 16.4782 24.2701 17.867C23.569 19.2558 22.4131 20.3622 20.9951 21.0016C20.5419 22.0039 19.8524 22.8813 18.9857 23.5584C18.119 24.2356 17.1011 24.6925 16.0191 24.8897C14.9372 25.087 13.8236 25.0188 12.7737 24.6911C11.7239 24.3633 10.7692 23.7858 9.99159 23.0079C9.21394 22.2301 8.63651 21.2752 8.30883 20.2251C7.98116 19.175 7.91301 18.0611 8.11024 16.9789C8.30746 15.8967 8.76417 14.8785 9.4412 14.0117C10.1182 13.1448 10.9954 12.4551 11.9974 12.0017C12.5364 10.8089 13.408 9.79683 14.5076 9.08703C15.6073 8.37723 16.8883 7.9998 18.197 8ZM14.7972 13.101C14.1275 13.101 13.4643 13.233 12.8456 13.4893C12.2269 13.7457 11.6647 14.1214 11.1911 14.5951C10.7175 15.0687 10.3419 15.6311 10.0856 16.25C9.82932 16.8688 9.69741 17.5321 9.69741 18.202C9.69741 18.8719 9.82932 19.5352 10.0856 20.1541C10.3419 20.773 10.7175 21.3353 11.1911 21.809C11.6647 22.2827 12.2269 22.6584 12.8456 22.9147C13.4643 23.1711 14.1275 23.303 14.7972 23.303C16.1497 23.303 17.4469 22.7656 18.4033 21.809C19.3597 20.8524 19.897 19.5549 19.897 18.202C19.897 16.8492 19.3597 15.5517 18.4033 14.5951C17.4469 13.6384 16.1497 13.101 14.7972 13.101ZM15.6471 13.9512V14.8013H17.3471V16.5017H13.9472C13.841 16.5015 13.7386 16.5411 13.6601 16.6126C13.5816 16.6842 13.5328 16.7826 13.5232 16.8884C13.5136 16.9942 13.544 17.0997 13.6083 17.1842C13.6726 17.2688 13.7662 17.3261 13.8707 17.3451L13.9472 17.3519H15.6471C16.2107 17.3519 16.7512 17.5758 17.1497 17.9744C17.5482 18.373 17.7721 18.9136 17.7721 19.4773C17.7721 20.041 17.5482 20.5816 17.1497 20.9802C16.7512 21.3788 16.2107 21.6027 15.6471 21.6027V22.4529H13.9472V21.6027H12.2473V19.9024H15.6471C15.7533 19.9026 15.8558 19.863 15.9343 19.7914C16.0127 19.7198 16.0616 19.6215 16.0712 19.5157C16.0808 19.4099 16.0504 19.3043 15.9861 19.2198C15.9218 19.1353 15.8281 19.0779 15.7236 19.059L15.6471 19.0522H13.9472C13.3837 19.0522 12.8432 18.8283 12.4447 18.4297C12.0462 18.0311 11.8223 17.4905 11.8223 16.9268C11.8223 16.3631 12.0462 15.8225 12.4447 15.4239C12.8432 15.0253 13.3837 14.8013 13.9472 14.8013V13.9512H15.6471ZM18.197 9.70034C17.4769 9.69949 16.7647 9.85162 16.1077 10.1466C15.4507 10.4417 14.8638 10.8729 14.3858 11.4117C15.3465 11.3534 16.3086 11.4997 17.2085 11.841C18.1085 12.1823 18.9257 12.7108 19.6062 13.3916C20.2867 14.0723 20.815 14.8898 21.1561 15.79C21.4973 16.6902 21.6434 17.6526 21.585 18.6135C22.3578 17.9262 22.9035 17.0202 23.1496 16.0157C23.3958 15.0111 23.3308 13.9554 22.9633 12.9886C22.5958 12.0217 21.9432 11.1895 21.092 10.6023C20.2407 10.015 19.2311 9.70046 18.197 9.70034Z" fill="#6D758F"/>
</svg>
