<svg width="33" height="33" viewBox="0 0 33 33" fill="none" xmlns="http://www.w3.org/2000/svg">
<circle cx="16.5" cy="16.5" r="16" fill="white" stroke="#C5CEDA"/>
<path d="M25 14.4969C25 12.913 23.5125 12.2795 22.6625 12.2795H20.325C20.75 11.2236 21.0688 9.95652 20.8563 9.00621C20.325 7.10559 18.7313 7 18.2 7H18.0938C17.6687 7 17.4563 7.21118 17.2437 7.52795L16.1812 10.4845L13.3125 13.3354H8V22.8385H13.3125V21.7826C13.525 21.7826 14.0562 22.0994 14.5875 22.4161C15.8625 23.0497 17.6687 24 19.3687 24C21.9187 24 22.7688 23.6832 23.4062 22.6273C23.725 21.9938 23.725 21.4658 23.725 21.1491C23.9375 20.9379 24.2563 20.6211 24.3625 20.0932C24.4688 19.5652 24.4688 19.2484 24.3625 18.9317C24.575 18.6149 24.7875 18.1925 24.8937 17.559C24.8937 17.0311 24.7875 16.6087 24.6812 16.2919C24.7875 15.8696 25 15.3416 25 14.4969ZM10.6562 21.2547C10.0187 21.2547 9.59375 20.8323 9.59375 20.1988C9.59375 19.5652 10.0187 19.1429 10.6562 19.1429C11.2938 19.1429 11.7188 19.5652 11.7188 20.1988C11.7188 20.8323 11.2938 21.2547 10.6562 21.2547ZM23.6187 16.6087C23.6187 16.6087 23.8312 16.8199 23.8312 17.3478C23.8312 17.9814 23.4062 18.2981 23.4062 18.2981L23.0875 18.6149L23.3 18.9317C23.3 18.9317 23.5125 19.2484 23.3 19.6708C23.1937 20.0932 22.7687 20.4099 22.7687 20.4099L22.45 20.7267L22.6625 21.1491C22.6625 21.1491 22.875 21.5714 22.5562 22.0994C22.3438 22.5217 22.1313 22.8385 19.475 22.8385C17.9875 22.8385 16.2875 21.9938 15.1187 21.3602C14.2687 20.9379 13.7375 20.7267 13.3125 20.7267V14.3913H13.4187C13.6312 14.3913 13.8438 14.2857 14.0562 14.1801L17.0312 11.2236C17.1375 11.118 17.1375 11.0124 17.2437 10.9068L18.3062 8.0559C18.8375 8.0559 19.5813 8.26708 19.7938 9.21739C19.9 9.85093 19.6875 10.9068 19.1562 12.1739C19.05 12.4907 19.05 12.7019 19.2625 13.0186C19.3688 13.2298 19.6875 13.3354 20.0063 13.3354H22.6625C22.7688 13.3354 23.9375 13.5466 23.9375 14.4969C23.9375 15.3416 23.6187 15.764 23.6187 15.764L23.3 16.1863L23.6187 16.6087Z" fill="#6D758F"/>
</svg>
