<svg width="34" height="33" viewBox="0 0 34 33" fill="none" xmlns="http://www.w3.org/2000/svg">
<circle cx="17.3025" cy="16.5" r="16" fill="white" stroke="#C5CEDA"/>
<path d="M25.5613 15.2933C25.5613 15.2933 26.0921 14.7267 25.986 13.48C25.986 11.78 24.2874 11.6667 24.2874 11.6667H21.7395C21.5271 11.6667 21.421 11.44 21.421 11.2133C21.7395 10.42 22.2703 8.83333 22.058 7.7C21.7395 6.11333 20.4655 6 20.0409 6C19.9347 6 19.8286 6.11333 19.8286 6.22667L18.7669 9.4C18.7669 9.4 18.7669 9.51333 18.6608 9.51333L15.9005 12.6867C15.7944 12.8 15.6882 12.8 15.5821 12.8H15.3697V20.7333H15.5821C16.3252 20.7333 18.9793 23 21.3148 23C23.6504 23 24.1812 22.66 24.6059 21.8667C25.0305 21.0733 24.712 20.3933 24.712 20.3933C24.712 20.3933 25.2428 20.0533 25.349 19.26C25.4552 18.4667 25.2428 18.0133 25.2428 18.0133C25.2428 18.0133 25.7736 17.56 25.7736 16.6533C25.8798 15.6333 25.5613 15.2933 25.5613 15.2933ZM9 21.8667H14.3081V12.8H9V21.8667ZM11.6541 17.9C12.291 17.9 12.7157 18.3533 12.7157 19.0333C12.7157 19.7133 12.291 20.1667 11.6541 20.1667C11.0171 20.1667 10.5924 19.7133 10.5924 19.0333C10.5924 18.3533 11.0171 17.9 11.6541 17.9Z" fill="#3FA9FF"/>
</svg>
