<svg width="34" height="33" viewBox="0 0 34 33" fill="none" xmlns="http://www.w3.org/2000/svg">
<circle cx="17.3025" cy="16.5" r="16" fill="white" stroke="#C5CEDA"/>
<path d="M25.7795 15.7576L27 17.2103L21.3072 24L18.2821 20.3939L19.5026 18.9412L21.3072 21.0842L25.7795 15.7576ZM16.1026 20.3939L18.7179 23.4848H10V21.4242C10 19.1473 13.121 17.303 16.9744 17.303L18.6221 17.4164L16.1026 20.3939ZM16.9744 7C17.8992 7 18.7862 7.4342 19.4402 8.20707C20.0941 8.97995 20.4615 10.0282 20.4615 11.1212C20.4615 12.2142 20.0941 13.2625 19.4402 14.0353C18.7862 14.8082 17.8992 15.2424 16.9744 15.2424C16.0495 15.2424 15.1625 14.8082 14.5086 14.0353C13.8546 13.2625 13.4872 12.2142 13.4872 11.1212C13.4872 10.0282 13.8546 8.97995 14.5086 8.20707C15.1625 7.4342 16.0495 7 16.9744 7Z" fill="#3FA9FF"/>
</svg>
