<svg width="33" height="33" viewBox="0 0 33 33" fill="none" xmlns="http://www.w3.org/2000/svg">
<circle cx="16.5" cy="16.5" r="16" fill="white" stroke="#C5CEDA"/>
<path d="M16.5 7C17.6272 7 18.7082 7.44777 19.5052 8.2448C20.3022 9.04183 20.75 10.1228 20.75 11.25C20.75 12.3772 20.3022 13.4582 19.5052 14.2552C18.7082 15.0522 17.6272 15.5 16.5 15.5C15.3728 15.5 14.2918 15.0522 13.4948 14.2552C12.6978 13.4582 12.25 12.3772 12.25 11.25C12.25 10.1228 12.6978 9.04183 13.4948 8.2448C14.2918 7.44777 15.3728 7 16.5 7ZM16.5 17.625C21.1963 17.625 25 19.5269 25 21.875V24H8V21.875C8 19.5269 11.8037 17.625 16.5 17.625Z" fill="#6D758F"/>
</svg>
