<svg width="34" height="33" viewBox="0 0 34 33" fill="none" xmlns="http://www.w3.org/2000/svg">
<circle cx="17.3025" cy="16.5" r="16" fill="white" stroke="#C5CEDA"/>
<path fill-rule="evenodd" clip-rule="evenodd" d="M9 10.7011C9 9.75981 9.76047 9 10.7 9H24.3C25.2395 9 26 9.75981 26 10.7011V20.8995C26 21.8408 25.2395 22.6006 24.3 22.6006H20.0704L17.9715 25.7475C17.9197 25.8252 17.8496 25.8889 17.7674 25.9329C17.6851 25.977 17.5933 26 17.5 26C17.4067 26 17.3149 25.977 17.2326 25.9329C17.1504 25.8889 17.0803 25.8252 17.0285 25.7475L14.9307 22.6006H10.7C9.76047 22.6006 9 21.8408 9 20.8995V10.7011ZM16.9605 18.9002L21.3261 13.9081L20.4739 13.1619L16.9061 17.2422L15.0679 15.4017L14.2655 16.2046L16.9605 18.9002Z" fill="#3FA9FF"/>
</svg>
