<svg width="33" height="33" viewBox="0 0 33 33" fill="none" xmlns="http://www.w3.org/2000/svg">
<circle cx="16.5" cy="16.5" r="16" fill="white" stroke="#C5CEDA"/>
<path d="M14.2333 22.0336L14.7048 21.7183C14.653 21.6408 14.5828 21.5772 14.5006 21.5333C14.4183 21.4894 14.3266 21.4665 14.2333 21.4665V22.0336ZM16.5 25.4334L16.0285 25.7475C16.0803 25.8252 16.1504 25.8889 16.2326 25.9329C16.3149 25.977 16.4067 26 16.5 26C16.5933 26 16.6851 25.977 16.7674 25.9329C16.8496 25.8889 16.9197 25.8252 16.9715 25.7475L16.5 25.4334ZM18.7667 22.0336V21.4665C18.6734 21.4665 18.5817 21.4894 18.4994 21.5333C18.4172 21.5772 18.347 21.6408 18.2952 21.7183L18.7667 22.0336ZM15.9333 18.0723L15.5321 18.4738L15.9605 18.9013L16.3595 18.4454L15.9333 18.0723ZM13.7619 22.3477L16.0285 25.7475L16.9715 25.1182L14.7048 21.7183L13.7619 22.3477ZM16.9715 25.7475L19.2381 22.3477L18.2952 21.7183L16.0285 25.1182L16.9715 25.7475ZM18.7667 22.6006H23.3V21.4665H18.7667V22.6006ZM23.3 22.6006C24.2395 22.6006 25 21.8408 25 20.8995H23.8667C23.8667 21.2136 23.6139 21.4665 23.3 21.4665V22.6006ZM25 20.8995V10.7011H23.8667V20.9007H25V20.8995ZM25 10.7011C25 9.75981 24.2395 9 23.3 9V10.134C23.6139 10.134 23.8667 10.3869 23.8667 10.7011H25ZM23.3 9H9.7V10.134H23.3V9ZM9.7 9C8.76047 9 8 9.75981 8 10.7011H9.13333C9.13333 10.3869 9.38607 10.134 9.7 10.134V9ZM8 10.7011V20.8995H9.13333V10.7011H8ZM8 20.8995C8 21.8408 8.76047 22.6006 9.7 22.6006V21.4665C9.62554 21.4667 9.55179 21.4521 9.48297 21.4237C9.41415 21.3952 9.35162 21.3535 9.29897 21.3008C9.24632 21.2481 9.20459 21.1855 9.17616 21.1167C9.14774 21.0478 9.13318 20.974 9.13333 20.8995H8ZM9.7 22.6006H14.2333V21.4665H9.7V22.6006ZM13.2655 16.2046L15.5321 18.4727L16.3345 17.6709L14.0679 15.4028L13.2655 16.2057V16.2046ZM16.3595 18.4454L20.3261 13.9093L19.4739 13.1631L15.5072 17.6992L16.3595 18.4454Z" fill="#6D758F"/>
</svg>
